<svg xmlns="http://www.w3.org/2000/svg" viewBox="0 0 100 100">
  <defs>
    <radialGradient id="g" cx="35%" cy="30%" r="75%">
      <stop offset="0%" stop-color="#F49AAE"/>
      <stop offset="55%" stop-color="#E8677D"/>
      <stop offset="100%" stop-color="#C84A63"/>
    </radialGradient>
  </defs>
  <path d="M50 86 C 14 62, 8 38, 26 24 C 38 15, 47 22, 50 32 C 53 22, 62 15, 74 24 C 92 38, 86 62, 50 86 Z" fill="url(#g)"/>
  <g transform="translate(50, 50)" stroke="#FFF6EE" stroke-width="4.4" stroke-linecap="round" fill="none">
    <g transform="translate(-12, 0) rotate(-12)">
      <path d="M -5 -8 Q -1.5 -3 0 0 Q 1.5 4 5 11"/>
      <path d="M 5 -8 Q 1.5 -3 0 0 Q -1.5 4 -5 11"/>
    </g>
    <g>
      <path d="M -5 -8 Q -1.5 -3 0 0 Q 1.5 4 5 11"/>
      <path d="M 5 -8 Q 1.5 -3 0 0 Q -1.5 4 -5 11"/>
    </g>
    <g transform="translate(12, 0) rotate(12)">
      <path d="M -5 -8 Q -1.5 -3 0 0 Q 1.5 4 5 11"/>
      <path d="M 5 -8 Q 1.5 -3 0 0 Q -1.5 4 -5 11"/>
    </g>
  </g>
</svg>
